<?xml version="1.0" standalone="no"?><!DOCTYPE svg PUBLIC "-//W3C//DTD SVG 1.1//EN" "http://www.w3.org/Graphics/SVG/1.1/DTD/svg11.dtd"><svg t="1546842488585" class="icon" style="" viewBox="0 0 1024 1024" version="1.1" xmlns="http://www.w3.org/2000/svg" p-id="2056" xmlns:xlink="http://www.w3.org/1999/xlink" width="200" height="200"><defs><style type="text/css"></style></defs><path d="M615.424 845.824H166.912C82.944 845.824 15.36 778.24 15.36 694.272V237.568C15.36 153.6 82.944 86.016 166.912 86.016h448.512C699.392 86.016 768 153.6 768 237.568v456.704c0 83.968-68.608 151.552-152.576 151.552zM166.912 147.456c-50.176 0-90.112 40.96-90.112 90.112v456.704c0 50.176 40.96 90.112 90.112 90.112h448.512c50.176 0 90.112-40.96 90.112-90.112V237.568c0-50.176-40.96-90.112-90.112-90.112H166.912z" p-id="2057"></path><path d="M934.912 790.528c-2.048 0-5.12 0-7.168-1.024l-55.296-13.312c-16.384-4.096-26.624-20.48-22.528-36.864 4.096-16.384 20.48-26.624 36.864-22.528l51.2 12.288c6.144-1.024 10.24-8.192 10.24-16.384V219.136c0-8.192-4.096-14.336-10.24-16.384l-150.528 34.816c-2.048 1.024-5.12 1.024-7.168 1.024-7.168 0-12.288 7.168-12.288 16.384V675.84c0 9.216 6.144 16.384 12.288 16.384 17.408 0 30.72 13.312 30.72 30.72s-13.312 30.72-30.72 30.72c-40.96 0-73.728-34.816-73.728-77.824V256c0-41.984 30.72-75.776 69.632-77.824L927.744 143.36c2.048-1.024 5.12-1.024 7.168-1.024 40.96 0 73.728 34.816 73.728 77.824v492.544c0 43.008-32.768 77.824-73.728 77.824zM558.08 374.784c-45.056 0-81.92-36.864-81.92-81.92s36.864-81.92 81.92-81.92 81.92 36.864 81.92 81.92-36.864 81.92-81.92 81.92z m0-102.4c-11.264 0-20.48 9.216-20.48 20.48s9.216 20.48 20.48 20.48 20.48-9.216 20.48-20.48-9.216-20.48-20.48-20.48zM701.44 937.984h-614.4c-17.408 0-30.72-13.312-30.72-30.72s13.312-30.72 30.72-30.72h614.4c17.408 0 30.72 13.312 30.72 30.72s-14.336 30.72-30.72 30.72z" p-id="2058"></path></svg>